<?xml version="1.0" standalone="no"?><!DOCTYPE svg PUBLIC "-//W3C//DTD SVG 1.1//EN" "http://www.w3.org/Graphics/SVG/1.1/DTD/svg11.dtd"><svg class="icon" width="200px" height="200.00px" viewBox="0 0 1024 1024" version="1.1" xmlns="http://www.w3.org/2000/svg"><path fill="#8a8a8a" d="M864.694857 534.784l73.984 131.510857-73.984 131.510857h-149.101714l-73.947429-131.510857 73.947429-131.510857h149.101714zM285.769143 256c20.955429 0 39.131429 14.262857 45.165714 35.547429l0.402286 2.925714c0.548571 0.329143 0.585143 0.512 0.585143 0.804571l-0.109715 0.438857 1.28 3.474286 2.56 5.961143c1.682286 3.584 3.730286 7.021714 5.997715 10.166857 9.728 13.348571 22.454857 19.931429 40.155428 19.931429 17.92 0 30.464-6.656 40.082286-20.443429a72.411429 72.411429 0 0 0 8.045714-15.36l2.633143-7.753143 0.365714-1.609143c4.644571-18.468571 21.248-32.036571 40.813715-33.901714L477.878857 256h285.732572a94.72 94.72 0 0 1 94.134857 94.134857v97.499429a28.086857 28.086857 0 1 1-56.173715 0V350.134857c0-20.516571-17.444571-37.961143-37.961142-37.961143h-278.308572l-1.060571 2.816c-4.717714 11.556571-11.117714 24.502857-16.310857 31.963429-20.004571 28.708571-49.481143 44.470857-86.125715 44.470857-52.48 0-95.670857-37.412571-104.740571-80.201143l0.219428 0.950857H222.134857c-17.700571 0-33.28 13.056-37.083428 29.842286l-0.694858 4.242286-0.182857 3.876571v325.851429c0 20.48 17.444571 37.961143 37.961143 37.961143l54.893714-0.073143 2.267429-5.522286c2.925714-6.912 7.021714-15.396571 10.788571-22.089143l2.742858-4.608 1.645714-2.486857c20.041143-28.745143 49.517714-44.470857 86.125714-44.470857 52.48 0 95.707429 37.412571 104.777143 80.201143l-0.292571-1.024 101.449142 0.073143c11.373714 0 21.321143 6.802286 25.709715 16.932571l1.389714 3.949714 0.731429 3.766857 0.256 3.437715a28.086857 28.086857 0 0 1-28.086858 28.086857h-109.860571c-20.992 0-39.168-14.262857-45.202286-35.547429l-0.402285-2.925714c-0.512-0.329143-0.585143-0.548571-0.548572-0.804571l0.073143-0.475429-1.28-3.437714-2.523429-5.997715a65.755429 65.755429 0 0 0-6.034285-10.130285c-9.691429-13.385143-22.418286-19.931429-40.155429-19.931429-17.92 0-30.427429 6.656-40.045714 20.443429a72.411429 72.411429 0 0 0-8.082286 15.396571l-2.596571 7.314286-0.365715 2.011428c-4.681143 18.468571-21.284571 32.036571-40.813714 33.865143l-4.132571 0.219429H222.134857A94.72 94.72 0 0 1 128 675.986286v-325.851429A94.72 94.72 0 0 1 222.134857 256z m548.169143 331.410286h-87.588572l-44.397714 78.884571 44.397714 78.884572h87.552l44.397715-78.884572-44.361143-78.884571z m-43.776 39.424a39.460571 39.460571 0 1 1 0 78.921143 39.460571 39.460571 0 0 1 0-78.921143z m-396.214857-157.842286c11.483429 0 21.504 10.020571 21.504 21.504v37.302857c0 12.909714-8.594286 21.504-21.504 21.504a22.052571 22.052571 0 0 1-21.504-21.504v-37.302857c0-11.483429 10.020571-21.504 21.504-21.504z m219.977142 17.188571c11.483429 0 21.504 10.057143 21.504 21.540572a22.052571 22.052571 0 0 1-21.504 21.504H509.44a22.052571 22.052571 0 0 1-21.540571-21.504c0-11.483429 10.057143-21.504 21.540571-21.504h104.484571z"  /></svg>