<?xml version="1.0" standalone="no"?><!DOCTYPE svg PUBLIC "-//W3C//DTD SVG 1.1//EN" "http://www.w3.org/Graphics/SVG/1.1/DTD/svg11.dtd"><svg class="icon" width="200px" height="200.00px" viewBox="0 0 1024 1024" version="1.1" xmlns="http://www.w3.org/2000/svg"><path fill="#8a8a8a" d="M946.656318 316.671982l-84.171311 336.649122c0 61.918295-50.249912 112.168207-112.168207 112.168207h-308.616101c-61.990545 0-112.168207-50.249912-112.168208-112.168207L273.3942 316.671982h0.252875L217.255909 148.365484H77.054681c-15.569886 0-28.105271-12.535384-28.10527-28.105271 0-15.461511 12.535384-28.033021 28.10527-28.03302h181.564383l70.010302 224.444789h618.026952zM338.852748 372.810273l46.709659 280.510831c0 30.959148 25.179143 56.138291 56.138292 56.138291h308.616101c30.959148 0 56.029916-25.179143 56.029916-56.138291l70.190926-280.510831H338.852748z m102.847951 448.817329c30.959148 0 56.138291 25.070768 56.138291 56.138291 0 30.959148-25.179143 56.029916-56.138291 56.029916s-56.138291-25.070768-56.138292-56.029916c0-31.067523 25.179143-56.138291 56.138292-56.138291z m280.51083 0c31.067523 0 56.138291 25.070768 56.138291 56.138291 0 30.959148-25.070768 56.029916-56.138291 56.029916-30.959148 0-56.029916-25.070768-56.029916-56.029916-0.036125-31.067523 25.070768-56.138291 56.029916-56.138291z"  /></svg>