<?xml version="1.0" standalone="no"?><!DOCTYPE svg PUBLIC "-//W3C//DTD SVG 1.1//EN" "http://www.w3.org/Graphics/SVG/1.1/DTD/svg11.dtd"><svg class="icon" width="200px" height="200.00px" viewBox="0 0 1024 1024" version="1.1" xmlns="http://www.w3.org/2000/svg"><path fill="#8a8a8a" d="M817.066667 923.733333l-104.533334-209.066666h12.8c40.533333 0 74.666667-34.133333 74.666667-74.666667V128c0-40.533333-34.133333-74.666667-74.666667-74.666667H298.666667c-40.533333 0-74.666667 34.133333-74.666667 74.666667v512c0 40.533333 34.133333 74.666667 74.666667 74.666667h12.8l-104.533334 209.066666c-8.533333 14.933333-2.133333 34.133333 14.933334 42.666667 14.933333 8.533333 34.133333 2.133333 42.666666-14.933333L384 712.533333h258.133333l119.466667 238.933334c8.533333 14.933333 27.733333 21.333333 42.666667 14.933333 14.933333-6.4 21.333333-25.6 12.8-42.666667zM288 320V128c0-6.4 4.266667-10.666667 10.666667-10.666667h426.666666c6.4 0 10.666667 4.266667 10.666667 10.666667v266.666667h-448V320zM661.333333 650.666667H362.666667h-66.133334c-6.4 0-10.666667-4.266667-10.666666-10.666667v-181.333333h448V640c0 6.4-4.266667 10.666667-10.666667 10.666667H661.333333zM384 554.666667m-42.666667 0a42.666667 42.666667 0 1 0 85.333334 0 42.666667 42.666667 0 1 0-85.333334 0ZM640 554.666667m-42.666667 0a42.666667 42.666667 0 1 0 85.333334 0 42.666667 42.666667 0 1 0-85.333334 0ZM416 810.666667c0-17.066667 14.933333-32 32-32h128c17.066667 0 32 14.933333 32 32s-14.933333 32-32 32h-128c-17.066667 0-32-14.933333-32-32zM384 906.666667c-17.066667 0-32 14.933333-32 32s14.933333 32 32 32h256c17.066667 0 32-14.933333 32-32s-14.933333-32-32-32H384z" /></svg>