<?xml version="1.0" standalone="no"?><!DOCTYPE svg PUBLIC "-//W3C//DTD SVG 1.1//EN" "http://www.w3.org/Graphics/SVG/1.1/DTD/svg11.dtd"><svg class="icon" width="200px" height="199.80px" viewBox="0 0 1025 1024" version="1.1" xmlns="http://www.w3.org/2000/svg"><path fill="#8a8a8a" d="M805.377 511.997H220.24a146.285 146.285 0 1 1 0-292.57h372.44c15.067 42.496 55.296 73.142 102.985 73.142s87.917-30.646 102.984-73.141h189.586a36.57 36.57 0 0 0 0-73.143H798.648c-15.067-42.496-55.296-73.142-102.984-73.142s-87.918 30.646-102.985 73.142H220.24a219.428 219.428 0 1 0 0 438.854h585.137a146.285 146.285 0 1 1 0 292.569h-372.44c-15.067-42.496-55.295-73.142-102.984-73.142s-87.917 30.646-102.984 73.142H37.38a36.57 36.57 0 0 0 0 73.143h189.586c15.068 42.495 55.296 73.142 102.985 73.142s87.917-30.647 102.984-73.142h372.44a219.428 219.428 0 1 0 0-438.854zM695.664 146.285a36.57 36.57 0 1 1 0 73.143 36.57 36.57 0 0 1 0-73.143zM329.952 950.85a36.57 36.57 0 1 1 0-73.142 36.57 36.57 0 0 1 0 73.142z" /></svg>