<?xml version="1.0" standalone="no"?><!DOCTYPE svg PUBLIC "-//W3C//DTD SVG 1.1//EN" "http://www.w3.org/Graphics/SVG/1.1/DTD/svg11.dtd"><svg class="icon" width="200px" height="200.00px" viewBox="0 0 1024 1024" version="1.1" xmlns="http://www.w3.org/2000/svg"><path fill="#8a8a8a" d="M322.998917 327.207598c0-25.80345-20.841248-46.644699-46.644699-46.644698s-46.644699 20.841248-46.644698 46.644698c0 19.948052 12.504749 36.918783 29.971699 43.568134 8.435743 43.270401 29.574724 83.166505 61.432061 115.023842 42.377205 42.377205 98.648575 65.699554 158.591975 65.699554h3.969762c59.9434 0 116.21477-23.322349 158.591975-65.699554 32.949021-32.949021 54.484978-74.43303 62.325257-119.489824 12.802481-8.336499 21.238224-22.726885 21.238224-39.102152 0-25.80345-20.841248-46.644699-46.644698-46.644698s-46.644699 20.841248-46.644699 46.644698c0 16.474511 8.534987 30.864896 21.337469 39.201396-17.863927 77.509595-87.433999 135.468114-170.203528 135.468114h-3.969762c-84.75441 0-155.51541-60.638108-171.394456-140.827292 9.130452-8.534987 14.688118-20.543516 14.688118-33.842218z"  /><path fill="#8a8a8a" d="M586.392598 820.450475H235.36643c-46.743943 0-84.853654-37.911223-85.25063-84.555922l34.239193-465.454545c0.099244-0.893196 0.099244-1.786393 0.099244-2.580345 6.053886-41.087032 41.583253-72.646637 84.357434-72.646637H687.026054c42.972669 0 78.601279 31.956581 84.456677 73.440589 0 0.694708 0 1.389417 0.099244 2.084125l17.665439 239.872843c0.99244 13.000969 11.810041 23.024617 24.711766 23.024618 0.595464 0 1.190928 0 1.885637-0.099244 13.695677-0.99244 23.917814-12.901725 22.925373-26.597403l-16.772242-227.665827c-0.893196-73.837565-61.035084-133.681721-134.87265-133.780965H257.00163c-3.076565 0-5.954642 0.595464-8.733475 1.587905-64.707114 9.82516-114.428378 65.898042-114.428378 133.284745v0.099244l-22.032176 299.716999L100.593024 733.413452v2.580345c0.396976 74.036053 60.737352 134.177941 134.87265 134.177942h350.926924c13.695677 0 24.81101-11.115332 24.81101-24.81101s-11.115332-24.910254-24.81101-24.910254z"  /><path fill="#8a8a8a" d="M761.756816 657.789494c-36.918783 0-66.890483 29.9717-66.890483 66.890483s29.9717 66.890483 66.890483 66.890482 66.890483-29.9717 66.890482-66.890482-29.9717-66.890483-66.890482-66.890483z m0 104.007754c-20.444272 0-37.117271-16.672999-37.117271-37.117271 0-20.444272 16.672999-37.117271 37.117271-37.117271 20.444272 0 37.117271 16.672999 37.11727 37.117271 0 20.444272-16.672999 37.117271-37.11727 37.117271z"  /><path fill="#8a8a8a" d="M920.646523 693.219616c-1.290173-6.450863-6.649351-11.313821-13.100213-11.909285-14.092654-1.389417-26.795891-9.527428-33.842218-21.734444-7.046327-12.107773-7.741035-27.093623-2.084125-39.896104 2.679589-5.954642 1.091684-13.000969-3.870517-17.268463-15.779802-13.695677-33.842217-24.116302-53.591782-30.864896-6.15313-2.084125-13.000969 0-16.871486 5.359178-8.237255 11.313821-21.535957 18.161659-35.529366 18.161659s-27.292111-6.748595-35.529367-18.161659c-3.870518-5.259934-10.718356-7.443303-16.871486-5.359178-19.749564 6.748595-37.712735 17.169219-53.591782 30.864896-4.962202 4.267494-6.550107 11.313821-3.870517 17.268463 5.756154 12.901725 4.962202 27.788331-2.084125 39.896104-7.046327 12.207017-19.749564 20.345028-33.842218 21.734444-6.550107 0.694708-11.909285 5.458422-13.100213 11.909285-2.084125 10.32138-3.076565 20.940492-3.076565 31.460361 0 10.122892 0.99244 20.245784 2.778833 30.170188 1.190928 6.550107 6.649351 11.413065 13.199457 12.107773 14.191898 1.389417 26.895135 9.527428 33.941462 21.833688 7.145571 12.405505 7.840279 27.490599 1.786393 40.491568-2.778833 6.053886-1.290173 13.100213 3.672029 17.466951 15.680558 13.695677 33.643729 24.116302 53.294049 30.964141 6.252374 2.183369 13.298701-0.099244 17.069975-5.557667 8.237255-11.810041 21.734445-18.856368 36.025586-18.856367s27.788331 7.046327 36.025587 18.856367c2.878077 4.069006 7.443303 6.351619 12.207017 6.351619 1.587905 0 3.275053-0.297732 4.862958-0.793952 19.65032-6.847839 37.514247-17.268463 53.294049-30.964141 4.962202-4.366738 6.550107-11.512309 3.672029-17.466951-6.053886-13.000969-5.359178-28.185307 1.786393-40.491568 7.145571-12.306261 19.848808-20.444272 33.941462-21.833688 6.649351-0.595464 12.008529-5.557666 13.199457-12.107773 1.885637-9.924404 2.778833-20.047296 2.778833-30.170188 0.396976-10.519868-0.694708-21.13898-2.679589-31.460361zM893.155924 739.368095c-18.955612 4.962202-35.330878 17.268463-45.255282 34.437681-10.023648 17.268463-12.405505 37.811979-7.145571 56.767591-8.138011 6.053886-16.871487 11.214576-26.200426 15.184338-13.794921-14.092654-32.750533-22.329909-52.797829-22.329909-20.047296 0-39.002908 8.138011-52.79783 22.329909-9.32894-4.069006-18.062415-9.130452-26.200426-15.184338 5.359178-18.955612 2.878077-39.499128-7.145571-56.767591-9.924404-17.169219-26.29967-29.47548-45.255282-34.437681-0.49622-4.862958-0.793952-9.82516-0.793952-14.688118 0-5.259934 0.297732-10.619112 0.99244-15.879047 18.856368-4.962202 35.231634-17.268463 45.056794-34.437681 9.82516-16.970731 12.306261-37.117271 7.344059-55.874395 8.336499-6.15313 17.268463-11.313821 26.696647-15.382826 13.695677 13.596433 32.452801 21.535957 52.003876 21.535957s38.308199-7.840279 52.003877-21.535957c9.527428 4.069006 18.459391 9.229696 26.696647 15.382826-4.962202 18.757123-2.381857 38.903664 7.344059 55.874395 9.924404 17.069975 26.200426 29.47548 45.056794 34.437681 0.595464 5.259934 0.99244 10.619112 0.99244 15.879047 0.198488 4.862958-0.099244 9.82516-0.595464 14.688118z"  /></svg>