<?xml version="1.0" standalone="no"?><!DOCTYPE svg PUBLIC "-//W3C//DTD SVG 1.1//EN" "http://www.w3.org/Graphics/SVG/1.1/DTD/svg11.dtd"><svg class="icon" width="200px" height="200.00px" viewBox="0 0 1024 1024" version="1.1" xmlns="http://www.w3.org/2000/svg"><path fill="#8a8a8a" d="M441.457778 907.946667H91.022222V68.266667h764.586667v348.16h-45.511111V113.777778H136.533333v748.657778h304.924445z"  /><path fill="#8a8a8a" d="M684.942222 775.964444l-106.951111-152.462222-111.502222 129.706667-34.133333-29.582222 147.911111-175.217778 106.951111 150.186667 168.391111-225.28 36.408889 27.306666zM191.146667 327.68h273.066666v45.511111h-273.066666zM191.146667 204.8h386.844444v45.511111h-386.844444zM191.146667 452.835556h204.8v45.511111h-204.8zM521.102222 798.72h45.511111v145.635556h-45.511111zM725.902222 823.751111h45.511111v120.604445h-45.511111z"  /><path fill="#8a8a8a" d="M634.88 773.688889h45.511111v168.391111h-45.511111zM839.68 748.657778h45.511111v193.422222h-45.511111z"  /></svg>